# xmcd
#
# Track frame offsets:
#	150
#	14075
#	27009
#	36651
#	49280
#	63710
#	77046
#	101659
#	112884
#	125349
#	136714
#	153355
#	167844
#	185200
#	196433
#	213206
#	239094
#	260035
#	277271
#	288997
#	303330
#	331756
#
# Disc length: 4674
#
# Revision: 3
# Processed by: cddbd v1.5.1PL0 Copyright (c) Steve Scherf et al.
# Submitted via: audiograbber 1.81.03
# Normalized: r2:DSETVAR1
#
DISCID=50124016
DTITLE=Various Artist - Down at the Crossroads - the Robert Johnson Connection - disk 3
DYEAR=2003
DGENRE=Blues
TTITLE0=Robert Lockwood Jr - Little Boy Blue
TTITLE1=Big Joe Williams - I'm a highwayman
TTITLE2=Jimmy McCracklin - Baby dont you want to go
TTITLE3=Johnny Shines - Evil hearted woman blues
TTITLE4=Little Walter - Muskadine blues(Take a little walk with me)
TTITLE5=Muddy Waters - Walkin' blues
TTITLE6=Baby Face Leroy Foster Trio - Rollin' and Tumblin'
TTITLE7=Johnny Shines - Fishtale
TTITLE8=Elmore James - Dust my broom
TTITLE9=Johnny Shines - Ramblin'
TTITLE10=The Kinks - Milk cow blues
TTITLE11=Alexis Korner - Hell hound on my trail
TTITLE12=John Renbourne - Come on in my kitchen
TTITLE13=Peter Greene and Duster Bennett - Kind hearted woman
TTITLE14=Tony McPhee - If I had possession over judgement day
TTITLE15=Foghat - Terraplane blues
TTITLE16=Joe Carter - Sweet home Chicago
TTITLE17=Homesick James - Crossroads
TTITLE18=Tony McPhee - Love in vain
TTITLE19=Blues Band - Rollin' and Tumblin'
TTITLE20=Jack Bruce - Sittin' on top of the world
TTITLE21=Alexis Korner - Robert Johnson
EXTD=
EXTT0=
EXTT1=
EXTT2=
EXTT3=
EXTT4=
EXTT5=
EXTT6=
EXTT7=
EXTT8=
EXTT9=
EXTT10=
EXTT11=
EXTT12=
EXTT13=
EXTT14=
EXTT15=
EXTT16=
EXTT17=
EXTT18=
EXTT19=
EXTT20=
EXTT21=
PLAYORDER=
